<svg width="233" height="160" viewBox="0 0 233 160" fill="none" xmlns="http://www.w3.org/2000/svg">
<g clip-path="url(#clip0_98_256)">
<path opacity="0.1" d="M232.747 67.1352C231.329 72.9013 224.051 75.7916 219.973 80.0931C212.289 88.2006 215.282 100.04 220.157 109.522C221.789 112.697 223.641 116.058 222.95 119.463C222.107 123.627 217.63 126.671 212.928 128.285C204.36 131.224 194.1 130.524 186.224 126.458C179.419 122.945 174.544 117.24 167.622 113.877C156.038 108.266 141.294 110.395 128.714 114.252C119.816 116.986 110.086 120.544 101.243 117.689C95.0212 115.677 90.7192 110.782 88.3753 105.603C87.2453 103.098 86.4232 100.386 84.263 98.4014C82.9779 97.2195 81.3011 96.3817 79.5855 95.6771C63.903 89.2247 44.0918 92.6803 28.8683 85.5233C18.5833 80.6913 11.9965 71.576 9.08154 62.0695C6.16657 52.5631 6.50519 42.5957 7.24566 32.8045C7.77194 25.8401 8.7164 18.4209 14.0731 13.0501C19.7399 7.36995 29.4639 5.26627 38.2558 6.33757C47.0476 7.40886 55.0133 11.2659 62.0243 15.7969C70.7958 21.4627 78.9104 28.5152 89.6666 30.8094C96.9918 32.3723 104.696 31.5161 112.252 31.2191C124.883 30.7254 137.518 31.8336 150.077 33.0298C156.197 33.6177 162.337 34.2343 168.404 35.1274C169.763 35.3267 171.123 35.5418 172.483 35.7726C173.165 35.8894 173.846 36.0102 174.523 36.1352C175.053 36.2314 175.582 36.34 176.11 36.4363C176.944 36.5988 177.775 36.7695 178.603 36.9484C180.981 37.4605 183.337 38.0402 185.669 38.6997C193.775 40.9959 200.274 45.1664 207.93 48.0792C212.92 49.978 218.36 50.5024 223.084 52.9195C228.898 55.8876 234.238 61.072 232.747 67.1352Z" fill="#6592E8"/>
<path d="M191.738 97.8606C203.255 97.8606 212.591 88.4853 212.591 76.9202C212.591 65.3551 203.255 55.9797 191.738 55.9797C180.22 55.9797 170.884 65.3551 170.884 76.9202C170.884 88.4853 180.22 97.8606 191.738 97.8606Z" fill="#6592E8"/>
<path d="M169.56 92.1397C181.077 92.1397 190.414 82.7643 190.414 71.1992C190.414 59.6341 181.077 50.2588 169.56 50.2588C158.043 50.2588 148.707 59.6341 148.707 71.1992C148.707 82.7643 158.043 92.1397 169.56 92.1397Z" fill="#6592E8"/>
<path d="M145.147 92.3445C156.664 92.3445 166 82.9692 166 71.4041C166 59.839 156.664 50.4636 145.147 50.4636C133.63 50.4636 124.293 59.839 124.293 71.4041C124.293 82.9692 133.63 92.3445 145.147 92.3445Z" fill="#6592E8"/>
<path d="M137.212 97.8606C148.729 97.8606 158.065 88.4853 158.065 76.9202C158.065 65.3551 148.729 55.9797 137.212 55.9797C125.695 55.9797 116.358 65.3551 116.358 76.9202C116.358 88.4853 125.695 97.8606 137.212 97.8606Z" fill="#6592E8"/>
<path d="M123.783 99.7003C135.301 99.7003 144.637 90.3249 144.637 78.7598C144.637 67.1947 135.301 57.8193 123.783 57.8193C112.266 57.8193 102.93 67.1947 102.93 78.7598C102.93 90.3249 112.266 99.7003 123.783 99.7003Z" fill="#6592E8"/>
<path d="M118.29 83.1514C129.807 83.1514 139.144 73.7761 139.144 62.211C139.144 50.6459 129.807 41.2705 118.29 41.2705C106.773 41.2705 97.4364 50.6459 97.4364 62.211C97.4364 73.7761 106.773 83.1514 118.29 83.1514Z" fill="#6592E8"/>
<path d="M124.393 63.9459C135.91 63.9459 145.247 54.5705 145.247 43.0054C145.247 31.4403 135.91 22.0649 124.393 22.0649C112.876 22.0649 103.54 31.4403 103.54 43.0054C103.54 54.5705 112.876 63.9459 124.393 63.9459Z" fill="#6592E8"/>
<path d="M135.99 63.9459C147.507 63.9459 156.844 54.5705 156.844 43.0054C156.844 31.4403 147.507 22.0649 135.99 22.0649C124.473 22.0649 115.136 31.4403 115.136 43.0054C115.136 54.5705 124.473 63.9459 135.99 63.9459Z" fill="#6592E8"/>
<path d="M142.705 55.3653C154.222 55.3653 163.559 45.9899 163.559 34.4248C163.559 22.8597 154.222 13.4844 142.705 13.4844C131.188 13.4844 121.852 22.8597 121.852 34.4248C121.852 45.9899 131.188 55.3653 142.705 55.3653Z" fill="#6592E8"/>
<path d="M159.795 64.7633C171.312 64.7633 180.649 55.3879 180.649 43.8228C180.649 32.2577 171.312 22.8823 159.795 22.8823C148.278 22.8823 138.942 32.2577 138.942 43.8228C138.942 55.3879 148.278 64.7633 159.795 64.7633Z" fill="#6592E8"/>
<path d="M199.673 83.1514C211.19 83.1514 220.526 73.7761 220.526 62.211C220.526 50.6459 211.19 41.2705 199.673 41.2705C188.155 41.2705 178.819 50.6459 178.819 62.211C178.819 73.7761 188.155 83.1514 199.673 83.1514Z" fill="#6592E8"/>
<path d="M187.668 72.7313C199.185 72.7313 208.522 63.3559 208.522 51.7908C208.522 40.2257 199.185 30.8503 187.668 30.8503C176.151 30.8503 166.814 40.2257 166.814 51.7908C166.814 63.3559 176.151 72.7313 187.668 72.7313Z" fill="#6592E8"/>
<path d="M179.937 62.3113C191.454 62.3113 200.791 52.936 200.791 41.3709C200.791 29.8058 191.454 20.4304 179.937 20.4304C168.42 20.4304 159.083 29.8058 159.083 41.3709C159.083 52.936 168.42 62.3113 179.937 62.3113Z" fill="#6592E8"/>
<path d="M165.289 46.5799C176.806 46.5799 186.142 37.2045 186.142 25.6394C186.142 14.0743 176.806 4.69897 165.289 4.69897C153.771 4.69897 144.435 14.0743 144.435 25.6394C144.435 37.2045 153.771 46.5799 165.289 46.5799Z" fill="#6592E8"/>
<path d="M192.551 63.9459C204.069 63.9459 213.405 54.5705 213.405 43.0054C213.405 31.4403 204.069 22.0649 192.551 22.0649C181.034 22.0649 171.698 31.4403 171.698 43.0054C171.698 54.5705 181.034 63.9459 192.551 63.9459Z" fill="#6592E8"/>
<g opacity="0.1">
<path opacity="0.1" d="M191.738 97.8607C203.255 97.8607 212.591 88.4853 212.591 76.9202C212.591 65.3551 203.255 55.9797 191.738 55.9797C180.22 55.9797 170.884 65.3551 170.884 76.9202C170.884 88.4853 180.22 97.8607 191.738 97.8607Z" fill="black"/>
<path opacity="0.1" d="M169.56 92.1397C181.077 92.1397 190.414 82.7643 190.414 71.1992C190.414 59.6341 181.077 50.2588 169.56 50.2588C158.043 50.2588 148.707 59.6341 148.707 71.1992C148.707 82.7643 158.043 92.1397 169.56 92.1397Z" fill="black"/>
<path opacity="0.1" d="M145.147 92.3445C156.664 92.3445 166 82.9692 166 71.4041C166 59.839 156.664 50.4636 145.147 50.4636C133.63 50.4636 124.293 59.839 124.293 71.4041C124.293 82.9692 133.63 92.3445 145.147 92.3445Z" fill="black"/>
<path opacity="0.1" d="M137.212 97.8607C148.729 97.8607 158.065 88.4853 158.065 76.9202C158.065 65.3551 148.729 55.9797 137.212 55.9797C125.695 55.9797 116.358 65.3551 116.358 76.9202C116.358 88.4853 125.695 97.8607 137.212 97.8607Z" fill="black"/>
<path opacity="0.1" d="M123.783 99.7002C135.301 99.7002 144.637 90.3249 144.637 78.7598C144.637 67.1947 135.301 57.8193 123.783 57.8193C112.266 57.8193 102.93 67.1947 102.93 78.7598C102.93 90.3249 112.266 99.7002 123.783 99.7002Z" fill="black"/>
<path opacity="0.1" d="M118.29 83.1514C129.807 83.1514 139.144 73.7761 139.144 62.211C139.144 50.6459 129.807 41.2705 118.29 41.2705C106.773 41.2705 97.4364 50.6459 97.4364 62.211C97.4364 73.7761 106.773 83.1514 118.29 83.1514Z" fill="black"/>
<path opacity="0.1" d="M124.393 63.9459C135.91 63.9459 145.247 54.5705 145.247 43.0054C145.247 31.4403 135.91 22.0649 124.393 22.0649C112.876 22.0649 103.54 31.4403 103.54 43.0054C103.54 54.5705 112.876 63.9459 124.393 63.9459Z" fill="black"/>
<path opacity="0.1" d="M135.99 63.9459C147.507 63.9459 156.844 54.5705 156.844 43.0054C156.844 31.4403 147.507 22.0649 135.99 22.0649C124.473 22.0649 115.136 31.4403 115.136 43.0054C115.136 54.5705 124.473 63.9459 135.99 63.9459Z" fill="black"/>
<path opacity="0.1" d="M142.705 55.3653C154.222 55.3653 163.559 45.9899 163.559 34.4248C163.559 22.8597 154.222 13.4844 142.705 13.4844C131.188 13.4844 121.852 22.8597 121.852 34.4248C121.852 45.9899 131.188 55.3653 142.705 55.3653Z" fill="black"/>
<path opacity="0.1" d="M159.795 64.7632C171.312 64.7632 180.649 55.3879 180.649 43.8228C180.649 32.2577 171.312 22.8823 159.795 22.8823C148.278 22.8823 138.942 32.2577 138.942 43.8228C138.942 55.3879 148.278 64.7632 159.795 64.7632Z" fill="black"/>
<path opacity="0.1" d="M199.673 83.1514C211.19 83.1514 220.526 73.7761 220.526 62.211C220.526 50.6459 211.19 41.2705 199.673 41.2705C188.155 41.2705 178.819 50.6459 178.819 62.211C178.819 73.7761 188.155 83.1514 199.673 83.1514Z" fill="black"/>
<path opacity="0.1" d="M187.668 72.7315C199.185 72.7315 208.522 63.3561 208.522 51.791C208.522 40.2259 199.185 30.8506 187.668 30.8506C176.151 30.8506 166.814 40.2259 166.814 51.791C166.814 63.3561 176.151 72.7315 187.668 72.7315Z" fill="black"/>
<path opacity="0.1" d="M179.937 62.3113C191.454 62.3113 200.791 52.936 200.791 41.3709C200.791 29.8058 191.454 20.4304 179.937 20.4304C168.42 20.4304 159.083 29.8058 159.083 41.3709C159.083 52.936 168.42 62.3113 179.937 62.3113Z" fill="black"/>
<path opacity="0.1" d="M165.289 46.5799C176.806 46.5799 186.142 37.2045 186.142 25.6394C186.142 14.0743 176.806 4.69897 165.289 4.69897C153.771 4.69897 144.435 14.0743 144.435 25.6394C144.435 37.2045 153.771 46.5799 165.289 46.5799Z" fill="black"/>
<path opacity="0.1" d="M192.551 63.9459C204.069 63.9459 213.405 54.5705 213.405 43.0054C213.405 31.4403 204.069 22.0649 192.551 22.0649C181.034 22.0649 171.698 31.4403 171.698 43.0054C171.698 54.5705 181.034 63.9459 192.551 63.9459Z" fill="black"/>
</g>
<path d="M181.438 113.617C181.438 113.617 194.187 102.857 187.88 87.5349L181.573 85.1628L174.729 106.32L181.438 113.617Z" fill="#67647E"/>
<path opacity="0.1" d="M182.118 84.4336L183.627 85.001L176.908 105.773L182.77 112.148C182.285 112.633 181.983 112.887 181.983 112.887L175.272 105.591L182.118 84.4336Z" fill="black"/>
<path opacity="0.1" d="M118.21 159.998C180.905 159.998 231.729 151.454 231.729 140.915C231.729 130.376 180.905 121.833 118.21 121.833C55.5157 121.833 4.69165 130.376 4.69165 140.915C4.69165 151.454 55.5157 159.998 118.21 159.998Z" fill="#6592E8"/>
<path d="M205.586 111.359C205.586 111.359 201.439 115.524 203.781 121.704C206.123 127.884 199.769 138.158 199.769 138.158L199.973 138.125C208.489 136.616 212.722 126.835 207.985 119.567C206.215 116.869 204.768 113.699 205.586 111.359Z" fill="#6592E8"/>
<path d="M205.586 111.359C205.586 111.359 203.244 116.464 205.586 120.628C207.928 124.793 205.994 136.478 199.766 138.158" stroke="#535461" stroke-miterlimit="10"/>
<path d="M212.973 128.203C212.973 128.203 208.24 127.447 207.81 131.706C207.379 135.965 198.708 136.554 198.708 136.554L198.871 136.663C206.029 141.374 212.871 139.668 211.838 133.404C211.457 131.075 211.488 128.736 212.973 128.203Z" fill="#6592E8"/>
<path opacity="0.2" d="M212.973 128.203C212.973 128.203 208.24 127.447 207.81 131.706C207.379 135.965 198.708 136.554 198.708 136.554L198.871 136.663C206.029 141.374 212.871 139.668 211.838 133.404C211.457 131.075 211.488 128.736 212.973 128.203Z" fill="#F5F5F5"/>
<path d="M212.973 128.203C212.973 128.203 209.301 129.022 209.601 132.367C209.901 135.712 204.146 139.742 198.71 136.554" stroke="#535461" stroke-miterlimit="10"/>
<path d="M123.861 91.2056L125.517 97.8628C125.517 97.8628 137.22 99.395 145.022 98.4323C146.402 98.2358 147.726 97.756 148.912 97.023C149.571 96.6317 150.612 96.4617 152.033 97.531C154.469 99.3745 166.423 114.123 164.487 129.424C164.337 130.577 163.812 131.648 162.995 132.472C162.177 133.295 161.112 133.825 159.964 133.98C157.581 134.306 155.302 135.172 153.3 136.511L147.385 140.467L208.04 139.135L201.743 131.481C201.743 131.481 197.435 127.82 194.12 127.486C193.153 127.39 192.356 126.499 191.711 125.288C187.935 118.191 183.419 111.517 178.523 105.145C174.958 100.503 171.965 95.6117 172.245 92.5391C172.907 85.2162 172.245 73.2353 172.245 73.2353L159.65 71.572C159.65 71.572 161.307 87.5493 146.061 91.5416C130.815 95.5338 123.861 91.2056 123.861 91.2056Z" fill="#67647E"/>
<g opacity="0.1">
<path opacity="0.1" d="M134.136 94.2024C134.136 94.2024 141.096 98.5286 156.344 94.5343C171.592 90.54 169.933 74.5647 169.933 74.5647L172.33 74.8781C172.285 73.854 172.251 73.2394 172.251 73.2394L159.657 71.5762C159.657 71.5762 161.313 87.5534 146.067 91.5457C130.821 95.538 123.859 91.2139 123.859 91.2139L125.515 97.8711C125.515 97.8711 129.987 98.4569 135.245 98.6761L134.136 94.2024Z" fill="black"/>
<path opacity="0.1" d="M163.575 139.506C165.577 138.166 167.856 137.301 170.239 136.975C171.385 136.822 172.448 136.295 173.265 135.475C174.082 134.655 174.607 133.587 174.76 132.437C176.706 117.136 164.746 102.361 162.317 100.526C159.665 98.5287 158.339 100.858 158.339 100.858C157.4 101.105 156.446 101.288 155.483 101.405C159.779 107.14 165.925 118.142 164.487 129.441C164.334 130.59 163.809 131.658 162.992 132.478C162.175 133.298 161.112 133.825 159.967 133.978C157.583 134.304 155.304 135.17 153.302 136.51L147.387 140.465L162.637 140.131L163.575 139.506Z" fill="black"/>
</g>
<path d="M134.011 123.498C134.011 123.498 132.745 119.18 134.248 116.001C134.887 114.672 135.08 113.17 134.797 111.722C134.654 111.035 134.449 110.362 134.185 109.713" stroke="#535461" stroke-width="2" stroke-miterlimit="10"/>
<path d="M135.131 107.703C135.131 108.232 134.176 109.768 134.176 109.768C134.176 109.768 133.228 108.232 133.228 107.703C133.228 107.449 133.328 107.205 133.508 107.025C133.687 106.846 133.929 106.745 134.183 106.745C134.436 106.745 134.679 106.846 134.858 107.025C135.037 107.205 135.137 107.449 135.137 107.703H135.131Z" fill="#6592E8"/>
<path d="M136.71 110.634C136.424 111.079 134.792 111.847 134.792 111.847C134.792 111.847 134.823 110.038 135.109 109.594C135.175 109.484 135.262 109.389 135.366 109.314C135.47 109.239 135.587 109.185 135.712 109.157C135.836 109.128 135.965 109.125 136.091 109.147C136.217 109.169 136.337 109.217 136.444 109.287C136.551 109.356 136.644 109.447 136.715 109.553C136.787 109.66 136.837 109.779 136.861 109.905C136.886 110.031 136.886 110.161 136.86 110.286C136.834 110.412 136.783 110.531 136.71 110.636V110.634Z" fill="#6592E8"/>
<path d="M136.641 115.64C136.17 115.878 134.376 115.714 134.376 115.714C134.376 115.714 135.311 114.168 135.782 113.93C135.894 113.873 136.016 113.84 136.141 113.83C136.266 113.821 136.392 113.836 136.511 113.876C136.63 113.915 136.74 113.978 136.835 114.06C136.93 114.142 137.008 114.243 137.064 114.355C137.12 114.468 137.154 114.59 137.163 114.716C137.173 114.841 137.157 114.967 137.118 115.087C137.079 115.206 137.016 115.317 136.934 115.412C136.852 115.508 136.753 115.586 136.641 115.643V115.64Z" fill="#6592E8"/>
<path d="M135.739 119.424C135.315 119.739 133.52 119.881 133.52 119.881C133.52 119.881 134.181 118.197 134.605 117.883C134.809 117.745 135.058 117.69 135.301 117.732C135.544 117.774 135.762 117.908 135.908 118.107C136.055 118.306 136.119 118.554 136.087 118.8C136.056 119.045 135.931 119.269 135.739 119.424Z" fill="#6592E8"/>
<path d="M132.787 111.953C133.165 112.322 134.927 112.705 134.927 112.705C134.927 112.705 134.497 110.948 134.111 110.579C133.928 110.411 133.687 110.32 133.439 110.328C133.19 110.335 132.955 110.439 132.782 110.618C132.609 110.797 132.512 111.036 132.512 111.286C132.512 111.535 132.608 111.775 132.781 111.953H132.787Z" fill="#6592E8"/>
<path d="M131.788 116.382C132.259 116.62 134.052 116.456 134.052 116.456C134.052 116.456 133.118 114.909 132.647 114.672C132.42 114.557 132.158 114.538 131.918 114.618C131.677 114.697 131.478 114.87 131.364 115.097C131.251 115.324 131.231 115.587 131.311 115.829C131.39 116.07 131.562 116.27 131.788 116.384V116.382Z" fill="#6592E8"/>
<path d="M131.404 120.825C131.829 121.14 133.624 121.282 133.624 121.282C133.624 121.282 132.963 119.598 132.539 119.285C132.335 119.146 132.085 119.091 131.842 119.133C131.599 119.175 131.382 119.309 131.235 119.508C131.089 119.707 131.024 119.955 131.056 120.201C131.087 120.446 131.212 120.67 131.404 120.825Z" fill="#6592E8"/>
<path d="M131.255 123.076C131.255 123.076 133.571 122.611 134.187 121.991C134.803 121.37 137.581 120.286 137.891 121.061C138.201 121.835 142.059 124.469 139.433 124.934C136.808 125.399 133.261 125.549 132.498 125.243C131.735 124.938 131.255 123.076 131.255 123.076Z" fill="#A8A8A8"/>
<path opacity="0.2" d="M139.435 124.653C136.812 125.118 133.263 125.268 132.5 124.963C131.912 124.727 131.504 123.592 131.343 123.066L131.266 123.082C131.266 123.082 131.729 124.942 132.5 125.252C133.271 125.561 136.82 125.407 139.435 124.942C140.192 124.807 140.408 124.494 140.327 124.094C140.261 124.348 139.998 124.549 139.435 124.653Z" fill="black"/>
<path d="M169.64 137.652C169.64 137.652 176.663 136.241 178.538 134.361C180.412 132.48 188.839 129.189 189.775 131.54C190.712 133.892 202.422 141.884 194.467 143.296C186.511 144.707 175.737 145.176 173.395 144.236C171.053 143.296 169.64 137.652 169.64 137.652Z" fill="#A8A8A8"/>
<path opacity="0.2" d="M194.459 142.421C186.503 143.832 175.729 144.301 173.387 143.361C171.604 142.644 170.364 139.203 169.874 137.603L169.64 137.652C169.64 137.652 171.045 143.295 173.385 144.236C175.725 145.176 186.497 144.707 194.457 143.295C196.756 142.886 197.412 141.931 197.164 140.723C196.97 141.511 196.168 142.12 194.459 142.421Z" fill="black"/>
<path d="M217.177 97.574C217.151 98.4158 216.888 99.2331 216.42 99.9317C215.948 99.2356 215.681 98.4198 215.651 97.5781C215.651 96.2774 215.985 95.2225 216.408 95.2205C216.83 95.2184 217.173 96.2733 217.177 97.574Z" fill="#6592E8"/>
<path d="M159.593 96.4311C159.565 97.2728 159.301 98.0893 158.83 98.7867C158.36 98.0893 158.096 97.2728 158.067 96.4311C158.067 95.1304 158.408 94.0754 158.83 94.0754C159.253 94.0754 159.593 95.1304 159.593 96.4311Z" fill="#6592E8"/>
<path d="M222.352 119.643C222.822 120.341 223.087 121.157 223.115 121.999C222.326 121.713 221.634 121.209 221.118 120.544C220.355 119.492 220.014 118.437 220.355 118.189C220.696 117.941 221.591 118.592 222.352 119.643Z" fill="#6592E8"/>
<path d="M197.984 107.31C197.955 108.152 197.691 108.968 197.221 109.666C196.75 108.968 196.486 108.152 196.458 107.31C196.458 106.009 196.798 104.954 197.221 104.954C197.643 104.954 197.984 106.013 197.984 107.31Z" fill="#6592E8"/>
<path d="M183.729 99.485C183.701 100.327 183.436 101.143 182.966 101.841C182.496 101.143 182.231 100.327 182.203 99.485C182.203 98.1843 182.544 97.1294 182.966 97.1294C183.388 97.1294 183.729 98.1843 183.729 99.485Z" fill="#6592E8"/>
<path d="M174.886 104.256C175.278 105 175.453 105.841 175.39 106.681C174.634 106.312 173.997 105.735 173.554 105.018C172.91 103.889 172.685 102.803 173.05 102.592C173.415 102.381 174.244 103.127 174.886 104.256Z" fill="#6592E8"/>
<path d="M168.279 125.895C167.648 126.45 166.874 126.815 166.045 126.948C166.23 126.127 166.643 125.375 167.235 124.778C168.179 123.889 169.181 123.418 169.468 123.726C169.756 124.033 169.224 125.006 168.279 125.895Z" fill="#6592E8"/>
<path opacity="0.1" d="M168.279 125.895C167.648 126.45 166.874 126.815 166.045 126.948C166.23 126.127 166.643 125.375 167.235 124.778C168.179 123.889 169.181 123.418 169.468 123.726C169.756 124.033 169.224 125.006 168.279 125.895Z" fill="black"/>
<path d="M182.152 124.559C181.521 125.114 180.747 125.479 179.919 125.612C180.104 124.791 180.516 124.039 181.108 123.443C182.052 122.554 183.054 122.083 183.341 122.39C183.629 122.697 183.097 123.668 182.152 124.559Z" fill="#6592E8"/>
<path opacity="0.1" d="M182.152 124.559C181.521 125.114 180.747 125.479 179.919 125.612C180.104 124.791 180.516 124.039 181.108 123.443C182.052 122.554 183.054 122.083 183.341 122.39C183.629 122.697 183.097 123.668 182.152 124.559Z" fill="black"/>
<path d="M184.812 138.681C184.181 139.236 183.407 139.601 182.578 139.734C182.763 138.91 183.176 138.156 183.77 137.558C184.714 136.669 185.716 136.198 186.003 136.505C186.291 136.813 185.759 137.79 184.812 138.681Z" fill="#6592E8"/>
<path opacity="0.1" d="M184.812 138.681C184.181 139.236 183.407 139.601 182.578 139.734C182.763 138.91 183.176 138.156 183.77 137.558C184.714 136.669 185.716 136.198 186.003 136.505C186.291 136.813 185.759 137.79 184.812 138.681Z" fill="black"/>
<path d="M18.4547 116.105C21.5818 120.741 20.5843 137.337 20.5843 137.337C20.5843 137.337 4.8671 132.111 1.73998 127.478C0.238418 125.252 -0.321036 122.518 0.184695 119.878C0.690426 117.238 2.21991 114.907 4.43669 113.4C6.65347 111.892 9.37594 111.33 12.0052 111.838C14.6345 112.346 16.9551 113.882 18.4567 116.108L18.4547 116.105Z" fill="#6592E8"/>
<path opacity="0.1" d="M18.4547 116.105C21.5818 120.741 20.5843 137.337 20.5843 137.337C20.5843 137.337 4.8671 132.111 1.73998 127.478C0.238418 125.252 -0.321036 122.518 0.184695 119.878C0.690426 117.238 2.21991 114.907 4.43669 113.4C6.65347 111.892 9.37594 111.33 12.0052 111.838C14.6345 112.346 16.9551 113.882 18.4567 116.108L18.4547 116.105Z" fill="black"/>
<path d="M4.49585 113.41C4.49585 113.41 16.2741 122.542 20.6455 137.353" stroke="#535461" stroke-miterlimit="10"/>
<path d="M23.6115 124.77C23.6115 124.77 15.248 123.336 20.9596 137.247C20.9596 137.247 26.7712 135.022 27.2241 129.488C27.3139 128.411 27.0075 127.338 26.3628 126.473C25.7181 125.608 24.7798 125.01 23.7257 124.793L23.6115 124.77Z" fill="#6592E8"/>
<path d="M23.7338 124.756C23.7338 124.756 25.327 132.45 20.9678 137.251" stroke="#535461" stroke-miterlimit="10"/>
<path d="M205.747 137.679C205.747 137.679 209.238 136.983 210.168 136.055C211.098 135.127 215.288 133.502 215.753 134.662C216.218 135.821 222.036 139.766 218.08 140.461C214.125 141.155 208.772 141.389 207.61 140.926C206.447 140.463 205.747 137.679 205.747 137.679Z" fill="#A8A8A8"/>
<path opacity="0.2" d="M218.086 140.033C214.131 140.729 208.779 140.96 207.616 140.498C206.731 140.143 206.114 138.449 205.87 137.656L205.753 137.681C205.753 137.681 206.451 140.465 207.616 140.93C208.781 141.395 214.131 141.161 218.086 140.465C219.229 140.26 219.555 139.793 219.433 139.195C219.329 139.582 218.931 139.883 218.086 140.033Z" fill="black"/>
<path d="M191.738 93.1617C203.255 93.1617 212.591 83.7863 212.591 72.2212C212.591 60.6561 203.255 51.2808 191.738 51.2808C180.22 51.2808 170.884 60.6561 170.884 72.2212C170.884 83.7863 180.22 93.1617 191.738 93.1617Z" fill="#6592E8"/>
<path d="M169.56 87.4407C181.077 87.4407 190.414 78.0654 190.414 66.5003C190.414 54.9352 181.077 45.5598 169.56 45.5598C158.043 45.5598 148.707 54.9352 148.707 66.5003C148.707 78.0654 158.043 87.4407 169.56 87.4407Z" fill="#6592E8"/>
<path d="M145.147 87.6456C156.664 87.6456 166 78.2702 166 66.7051C166 55.14 156.664 45.7646 145.147 45.7646C133.63 45.7646 124.293 55.14 124.293 66.7051C124.293 78.2702 133.63 87.6456 145.147 87.6456Z" fill="#6592E8"/>
<path d="M137.212 93.1617C148.729 93.1617 158.065 83.7863 158.065 72.2212C158.065 60.6561 148.729 51.2808 137.212 51.2808C125.695 51.2808 116.358 60.6561 116.358 72.2212C116.358 83.7863 125.695 93.1617 137.212 93.1617Z" fill="#6592E8"/>
<path d="M123.783 95.0013C135.301 95.0013 144.637 85.6259 144.637 74.0608C144.637 62.4957 135.301 53.1204 123.783 53.1204C112.266 53.1204 102.93 62.4957 102.93 74.0608C102.93 85.6259 112.266 95.0013 123.783 95.0013Z" fill="#6592E8"/>
<path d="M118.29 78.4524C129.807 78.4524 139.144 69.0771 139.144 57.512C139.144 45.9469 129.807 36.5715 118.29 36.5715C106.773 36.5715 97.4364 45.9469 97.4364 57.512C97.4364 69.0771 106.773 78.4524 118.29 78.4524Z" fill="#6592E8"/>
<path d="M124.393 59.2469C135.91 59.2469 145.247 49.8715 145.247 38.3064C145.247 26.7413 135.91 17.366 124.393 17.366C112.876 17.366 103.54 26.7413 103.54 38.3064C103.54 49.8715 112.876 59.2469 124.393 59.2469Z" fill="#6592E8"/>
<path d="M135.99 59.2469C147.507 59.2469 156.844 49.8715 156.844 38.3064C156.844 26.7413 147.507 17.366 135.99 17.366C124.473 17.366 115.136 26.7413 115.136 38.3064C115.136 49.8715 124.473 59.2469 135.99 59.2469Z" fill="#6592E8"/>
<path d="M142.705 50.6663C154.222 50.6663 163.559 41.2909 163.559 29.7259C163.559 18.1608 154.222 8.7854 142.705 8.7854C131.188 8.7854 121.852 18.1608 121.852 29.7259C121.852 41.2909 131.188 50.6663 142.705 50.6663Z" fill="#6592E8"/>
<path d="M159.795 60.0643C171.312 60.0643 180.649 50.6889 180.649 39.1238C180.649 27.5587 171.312 18.1833 159.795 18.1833C148.278 18.1833 138.942 27.5587 138.942 39.1238C138.942 50.6889 148.278 60.0643 159.795 60.0643Z" fill="#6592E8"/>
<path d="M199.673 78.4524C211.19 78.4524 220.526 69.0771 220.526 57.512C220.526 45.9469 211.19 36.5715 199.673 36.5715C188.155 36.5715 178.819 45.9469 178.819 57.512C178.819 69.0771 188.155 78.4524 199.673 78.4524Z" fill="#6592E8"/>
<path d="M187.668 68.0325C199.185 68.0325 208.522 58.6572 208.522 47.0921C208.522 35.527 199.185 26.1516 187.668 26.1516C176.151 26.1516 166.814 35.527 166.814 47.0921C166.814 58.6572 176.151 68.0325 187.668 68.0325Z" fill="#6592E8"/>
<path d="M179.937 57.6124C191.454 57.6124 200.791 48.237 200.791 36.6719C200.791 25.1068 191.454 15.7314 179.937 15.7314C168.42 15.7314 159.083 25.1068 159.083 36.6719C159.083 48.237 168.42 57.6124 179.937 57.6124Z" fill="#6592E8"/>
<path d="M165.289 41.8809C176.806 41.8809 186.142 32.5055 186.142 20.9405C186.142 9.37536 176.806 0 165.289 0C153.771 0 144.435 9.37536 144.435 20.9405C144.435 32.5055 153.771 41.8809 165.289 41.8809Z" fill="#6592E8"/>
<path d="M192.551 59.2469C204.069 59.2469 213.405 49.8715 213.405 38.3064C213.405 26.7413 204.069 17.366 192.551 17.366C181.034 17.366 171.698 26.7413 171.698 38.3064C171.698 49.8715 181.034 59.2469 192.551 59.2469Z" fill="#6592E8"/>
<path opacity="0.1" d="M212.499 41.5859C212.499 41.5859 193.078 32.3376 181.326 48.7286L212.499 41.5859Z" fill="black"/>
<path opacity="0.1" d="M161.486 22.8494C161.486 22.8494 140.002 22.198 135.784 41.9443L161.486 22.8494Z" fill="black"/>
<path opacity="0.1" d="M134.78 65.6931C134.78 65.6931 115.359 56.4427 103.607 72.8297L134.78 65.6931Z" fill="black"/>
<path d="M49.781 117.894C49.781 117.894 50.9009 119.365 49.2629 121.581C47.6249 123.797 46.2745 125.678 46.815 127.062C46.815 127.062 49.2853 122.937 51.3027 122.88C53.3202 122.822 51.9922 120.374 49.781 117.894Z" fill="#6592E8"/>
<path opacity="0.1" d="M49.781 117.894C49.8785 118.036 49.9554 118.191 50.0094 118.355C51.9718 120.669 53.0182 122.83 51.1314 122.886C49.375 122.937 47.2658 126.091 46.762 126.888C46.7783 126.95 46.798 127.011 46.8211 127.07C46.8211 127.07 49.2914 122.945 51.3088 122.888C53.3263 122.83 51.9922 120.374 49.781 117.894Z" fill="black"/>
<path d="M51.8637 119.77C51.8637 120.288 51.8066 120.708 51.7352 120.708C51.6638 120.708 51.6067 120.299 51.6067 119.77C51.6067 119.242 51.6781 119.496 51.7495 119.496C51.8209 119.496 51.8637 119.252 51.8637 119.77Z" fill="#FFD037"/>
<path d="M52.5776 120.387C52.1248 120.635 51.729 120.784 51.6964 120.721C51.6638 120.657 52.0024 120.405 52.4552 120.157C52.9081 119.909 52.7286 120.09 52.7632 120.157C52.7979 120.225 53.0305 120.147 52.5776 120.387Z" fill="#FFD037"/>
<path d="M43.8613 117.894C43.8613 117.894 42.7414 119.365 44.3794 121.581C46.0174 123.797 47.3678 125.678 46.8273 127.062C46.8273 127.062 44.357 122.937 42.3396 122.88C40.3221 122.822 41.648 120.374 43.8613 117.894Z" fill="#6592E8"/>
<path opacity="0.1" d="M43.8612 117.894C43.7637 118.036 43.6868 118.191 43.6327 118.355C41.6704 120.669 40.6239 122.83 42.5108 122.886C44.2671 122.937 46.3764 126.091 46.8802 126.888C46.8639 126.95 46.8442 127.011 46.8211 127.07C46.8211 127.07 44.3508 122.945 42.3334 122.888C40.3159 122.83 41.648 120.374 43.8612 117.894Z" fill="black"/>
<path d="M41.7786 119.77C41.7786 120.288 41.8357 120.708 41.9071 120.708C41.9785 120.708 42.0356 120.299 42.0356 119.77C42.0356 119.242 41.9642 119.496 41.8928 119.496C41.8214 119.496 41.7786 119.252 41.7786 119.77Z" fill="#FFD037"/>
<path d="M41.0625 120.387C41.5154 120.635 41.9111 120.784 41.9438 120.721C41.9764 120.657 41.6378 120.405 41.1849 120.157C40.7321 119.909 40.9116 120.09 40.8769 120.157C40.8422 120.225 40.6178 120.147 41.0625 120.387Z" fill="#FFD037"/>
<path d="M42.1355 126.876C42.1355 126.876 45.2687 126.78 46.2152 126.104C47.1617 125.428 51.0354 124.623 51.268 125.704C51.5005 126.786 55.976 131.089 52.4389 131.118C48.9017 131.147 44.2202 130.565 43.2778 129.987C42.3354 129.41 42.1355 126.876 42.1355 126.876Z" fill="#A8A8A8"/>
<path opacity="0.2" d="M52.5001 130.743C48.9629 130.772 44.2814 130.19 43.339 129.613C42.621 129.174 42.3354 127.599 42.2395 126.872H42.1355C42.1355 126.872 42.3395 129.41 43.2758 129.985C44.2121 130.561 48.8997 131.145 52.4368 131.116C53.4568 131.116 53.8097 130.743 53.7913 130.202C53.6506 130.532 53.265 130.737 52.5001 130.743Z" fill="black"/>
<path d="M24.3887 147.132C24.7626 146.826 25.0351 146.413 25.17 145.948C25.272 145.477 25.0721 144.914 24.6233 144.742C24.1215 144.549 23.585 144.897 23.1791 145.252C22.7732 145.606 22.306 146.008 21.7736 145.932C22.0473 145.683 22.252 145.367 22.3678 145.015C22.4836 144.662 22.5066 144.286 22.4345 143.922C22.4115 143.772 22.3481 143.63 22.251 143.513C21.9715 143.214 21.4676 143.343 21.1331 143.578C20.0724 144.328 19.7766 145.774 19.7705 147.077C19.6644 146.608 19.7542 146.118 19.7501 145.643C19.746 145.168 19.6154 144.619 19.2116 144.369C18.9611 144.234 18.6798 144.167 18.3956 144.174C17.9183 144.156 17.3879 144.205 17.0615 144.555C16.6536 144.99 16.7617 145.721 17.1146 146.194C17.4675 146.667 18.0019 146.972 18.4956 147.304C18.8912 147.54 19.2287 147.863 19.4829 148.249C19.5128 148.302 19.5373 148.358 19.5563 148.417H22.5447C23.2143 148.074 23.8346 147.642 24.3887 147.132Z" fill="#6592E8"/>
<path d="M210.017 150C210.391 149.694 210.663 149.281 210.798 148.816C210.9 148.345 210.7 147.782 210.251 147.609C209.75 147.417 209.213 147.765 208.807 148.119C208.401 148.474 207.934 148.875 207.402 148.8C207.675 148.55 207.88 148.234 207.996 147.882C208.112 147.53 208.135 147.154 208.063 146.79C208.04 146.639 207.976 146.498 207.879 146.38C207.6 146.081 207.096 146.21 206.761 146.446C205.7 147.196 205.405 148.642 205.399 149.945C205.292 149.476 205.382 148.986 205.378 148.511C205.374 148.036 205.243 147.487 204.84 147.237C204.589 147.102 204.308 147.034 204.024 147.042C203.546 147.024 203.016 147.073 202.69 147.423C202.282 147.857 202.39 148.589 202.743 149.062C203.096 149.535 203.63 149.84 204.124 150.172C204.519 150.408 204.857 150.731 205.111 151.116C205.141 151.17 205.165 151.226 205.184 151.284H208.173C208.842 150.942 209.463 150.51 210.017 150Z" fill="#6592E8"/>
<path d="M140.484 148.89C140.484 148.89 140.28 152.097 140.688 152.63C140.688 152.63 131.321 154.34 130.15 153.806C128.979 153.271 129.511 152.417 130.15 152.095C130.788 151.774 133.983 150.598 134.407 148.355C134.407 148.355 133.024 147.714 137.493 148.56C141.963 149.406 140.484 148.89 140.484 148.89Z" fill="#DC9BA3"/>
<path opacity="0.05" d="M140.484 148.89C140.484 148.89 140.28 152.097 140.688 152.63C140.688 152.63 131.321 154.34 130.15 153.806C128.979 153.271 129.511 152.417 130.15 152.095C130.788 151.774 133.983 150.598 134.407 148.355C134.407 148.355 133.024 147.714 137.493 148.56C141.963 149.406 140.484 148.89 140.484 148.89Z" fill="black"/>
<path d="M176.995 117.783C176.995 117.783 175.825 119.707 176.569 123.449C177.314 127.191 174.654 127.189 174.654 127.189H169.334L167.524 122.478L170.078 122.683C170.078 122.683 171.782 122.255 171.037 118.299L176.995 117.783Z" fill="#FFD2D9"/>
<path d="M161.029 113.295C161.845 115.899 162.865 119.069 163.41 120.759L163.797 121.954L167.31 118.32C167.31 118.32 167.155 117.959 166.925 117.455C166.411 116.337 165.515 114.512 165.074 114.364C165.074 114.364 169.97 114.043 171.461 115.219C172.952 116.394 172.526 112.011 172.526 112.011C172.526 112.011 169.652 111.806 168.587 111.157C167.522 110.507 161.774 109.874 161.774 109.874C161.774 109.874 159.858 109.553 161.029 113.295Z" fill="#FFD2D9"/>
<path d="M129.093 144.727L129.838 150.178L131.753 149.973C131.753 149.973 131.869 149.863 132.065 149.686C132.581 149.23 133.656 148.335 134.684 147.843C135.032 147.664 135.41 147.551 135.798 147.509L133.669 144.301C133.151 144.496 132.62 144.654 132.08 144.774C131.519 144.907 130.944 144.976 130.368 144.979C129.93 144.986 129.496 144.9 129.093 144.727Z" fill="#FFD2D9"/>
<path d="M134.415 148.57C135.374 149.424 139.737 147.607 140.484 150.387L141.169 147.751L143.28 139.639L143.57 138.523L145.328 138.447L165.509 137.583L166.651 137.533L167.263 137.507L166.464 137.109L161.142 134.461C161.142 134.461 159.224 134.326 156.58 133.961C152.572 133.41 146.893 132.322 143.686 130.399C138.364 127.191 136.343 137.988 136.343 137.988C136.343 137.988 135.527 140.727 134.915 143.427C134.634 144.591 134.419 145.771 134.272 146.96C134.181 147.786 134.209 148.384 134.415 148.57Z" fill="#E9E9EF"/>
<path opacity="0.05" d="M134.415 148.57C135.374 149.424 139.737 147.607 140.484 150.387L141.169 147.751L143.28 139.639L143.57 138.523L145.384 138.41L164.881 137.206L166.084 137.13L166.455 137.108L166.935 137.077L161.133 134.457C161.133 134.457 159.216 134.322 156.572 133.957C152.564 133.406 146.885 132.318 143.678 130.395C138.356 127.187 136.335 137.984 136.335 137.984C136.335 137.984 135.519 140.723 134.907 143.423C134.626 144.587 134.411 145.767 134.264 146.956C134.181 147.786 134.209 148.384 134.415 148.57Z" fill="black"/>
<path opacity="0.1" d="M132.082 144.766L133.944 146.96L134.686 147.835C135.034 147.656 135.412 147.543 135.8 147.501L133.671 144.293C133.153 144.488 132.622 144.646 132.082 144.766Z" fill="black"/>
<path d="M132.182 144.508L134.264 146.966L135.268 148.148V148.47C136.492 148.755 140.325 147.943 141.169 147.757L141.334 147.72C143.782 147.827 152.831 142.482 152.831 142.482C152.831 142.482 162.731 144.193 167.518 143.765C170.192 143.525 170.943 142.554 171.084 141.741C171.146 141.339 171.09 140.928 170.925 140.557L166.641 137.536L166.074 137.126L165.168 136.485C165.168 136.485 163.593 136.126 161.594 135.684C158.469 134.992 154.306 134.092 153.463 134.029C152.08 133.922 148.568 135.098 146.544 137.45C146.197 137.817 145.805 138.138 145.377 138.406L145.322 138.443C144.753 138.822 144.054 139.224 143.282 139.635C140.706 140.997 137.271 142.462 134.909 143.423C133.293 144.084 132.182 144.508 132.182 144.508Z" fill="#E9E9EF"/>
<path opacity="0.1" d="M129.093 144.727L129.838 150.178L131.753 149.973C131.753 149.973 131.869 149.863 132.065 149.686C131.641 149.686 130.941 149.574 130.794 148.691C130.794 148.691 131.533 146.1 130.368 144.983C129.93 144.989 129.496 144.901 129.093 144.727Z" fill="black"/>
<path d="M130.576 148.677C130.576 148.677 131.641 144.936 129.193 144.508L125.148 146.112L120.456 146.434C120.456 146.434 119.232 148.439 121.193 150.688C121.732 151.298 122.388 151.792 123.122 152.14C123.856 152.489 124.653 152.685 125.464 152.716L130.576 152.952L132.181 149.644C132.181 149.644 130.796 149.959 130.576 148.677Z" fill="#DC9BA3"/>
<path opacity="0.1" d="M156.574 133.961C157.111 134.119 159.33 134.781 161.602 135.688C162.726 136.123 163.82 136.63 164.879 137.206C165.099 137.331 165.309 137.456 165.507 137.581C166.025 137.887 166.489 138.277 166.88 138.736C168.193 140.442 170.123 141.362 171.084 141.737C171.146 141.335 171.09 140.924 170.925 140.553L166.641 137.531L167.253 137.505L166.453 137.107L166.933 137.077L161.131 134.457C161.131 134.457 159.218 134.326 156.574 133.961Z" fill="black"/>
<path opacity="0.1" d="M163.418 120.762L163.806 121.956L167.318 118.322C167.318 118.322 167.163 117.961 166.933 117.458C166.478 118.398 164.358 120.049 163.418 120.762Z" fill="black"/>
<path d="M176.084 122.533C176.209 122.171 176.302 121.798 176.359 121.419L180.934 123.015C180.934 123.015 184.074 125.419 183.756 130.657C183.756 130.657 179.88 129.223 178.166 130.923L178.132 131.224C177.771 134.213 176.454 137.004 174.378 139.176C173.532 140.069 172.734 141.075 172.312 142.044C172.312 142.044 169.332 141.19 167.522 138.836C165.713 136.483 157.094 134.033 157.094 134.033C157.094 134.033 161.672 134.139 162.31 132.535C162.949 130.932 165.079 127.511 164.334 124.84C163.589 122.169 163.163 121.312 163.163 121.312C163.163 121.312 167.528 118.213 167.208 117.25L169.976 120.458L171.253 120.886C171.152 121.135 171.101 121.401 171.102 121.669C171.029 124.571 175.113 125.268 176.084 122.533Z" fill="#CEDAD5"/>
<path opacity="0.1" d="M171.196 119.723C171.164 119.324 171.11 118.926 171.035 118.533L176.995 117.998C176.995 117.998 176.587 118.357 176.404 119.692C175.704 120.102 174.888 120.671 174.015 120.671C172.998 120.673 172.008 120.34 171.196 119.723Z" fill="black"/>
<path d="M173.962 120.51C176.549 120.51 178.646 118.404 178.646 115.807C178.646 113.209 176.549 111.104 173.962 111.104C171.375 111.104 169.279 113.209 169.279 115.807C169.279 118.404 171.375 120.51 173.962 120.51Z" fill="#FFD2D9"/>
<path d="M177.422 117.036H176.783V115.219L176.145 113.295C176.145 113.295 172.95 111.798 171.453 112.119L170.29 113.183C170.29 113.183 169.97 110.618 171.888 109.655C173.805 108.693 177.21 109.121 178.062 109.86C178.915 110.6 180.306 111.892 179.233 115.419L178.921 116.288C178.921 116.288 177.634 115.86 177.422 117.036Z" fill="#844F6E"/>
<g opacity="0.05">
<path opacity="0.05" d="M169.148 119.504L168.799 119.387L167.192 117.525C167.223 117.437 167.227 117.341 167.202 117.25L169.148 119.504Z" fill="black"/>
<path opacity="0.05" d="M171.388 122.953C170.933 122.758 170.549 122.428 170.287 122.007C170.025 121.585 169.899 121.093 169.925 120.597C169.925 120.534 169.925 120.475 169.925 120.417L169.958 120.456L171.235 120.884C171.134 121.133 171.083 121.398 171.084 121.667C171.071 122.115 171.176 122.559 171.388 122.953Z" fill="black"/>
<path opacity="0.05" d="M158.971 133.945C161.639 134.877 165.252 136.345 166.351 137.773L166.433 137.875C163.51 135.862 157.09 134.031 157.09 134.031C157.718 134.038 158.346 134.009 158.971 133.945Z" fill="black"/>
<path opacity="0.05" d="M171.141 140.981C171.563 140.016 172.365 139.008 173.207 138.113C175.283 135.941 176.6 133.15 176.961 130.161L176.995 129.86C178.699 128.15 182.585 129.594 182.585 129.594C182.789 126.271 181.597 124.09 180.702 122.939L180.936 123.021C180.936 123.021 184.076 125.425 183.758 130.663C183.758 130.663 179.882 129.229 178.168 130.929L178.134 131.231C177.773 134.219 176.456 137.01 174.38 139.182C173.534 140.075 172.736 141.081 172.314 142.05C172.314 142.05 169.719 141.304 167.904 139.297C168.882 140.035 169.976 140.604 171.141 140.981Z" fill="black"/>
</g>
<path d="M172.312 128.474C172.312 128.474 177.412 135.848 180.082 137.986C182.752 140.125 183.488 137.023 183.488 137.023V130.184L178.797 129.649L178.746 130.299L178.689 131.04L174.323 126.329C174.323 126.329 169.958 122.374 169.107 124.725C168.257 127.077 172.312 128.474 172.312 128.474Z" fill="#FFD2D9"/>
<path opacity="0.1" d="M178.756 130.299C179.394 130.672 180.071 130.974 180.775 131.2C181.781 131.511 182.934 131.184 183.49 130.983V130.184L178.799 129.649L178.756 130.299Z" fill="black"/>
<path d="M183.543 129.49L183.817 130.635C183.817 130.635 182.152 131.413 180.769 130.987C179.837 130.669 178.946 130.239 178.117 129.705C177.913 129.598 178.968 128.422 178.968 128.422L183.543 129.49Z" fill="#CEDAD5"/>
<path opacity="0.1" d="M152.884 142.529C152.174 141.982 151.384 141.549 150.542 141.245C149.739 140.97 148.983 140.573 148.298 140.069" fill="black"/>
<path opacity="0.2" d="M120.471 146.432L120.644 146.419C120.391 147.065 120.032 148.642 121.525 150.365C122.063 150.972 122.717 151.465 123.448 151.813C124.18 152.161 124.974 152.357 125.782 152.39L130.739 152.624L130.58 152.952L125.464 152.716C124.655 152.683 123.862 152.487 123.13 152.139C122.399 151.791 121.745 151.298 121.207 150.69C119.247 148.437 120.471 146.432 120.471 146.432Z" fill="white"/>
<path opacity="0.05" d="M138.546 151.014C138.531 151.078 138.514 151.142 138.495 151.204C138.391 151.145 138.242 151.03 138.546 151.014Z" fill="#00FF00"/>
<path opacity="0.2" d="M130.168 153.486C131.259 153.984 139.464 152.534 140.571 152.333C140.594 152.439 140.637 152.54 140.698 152.63C140.698 152.63 131.331 154.34 130.16 153.806C129.548 153.531 129.407 153.171 129.489 152.843C129.556 153.072 129.748 153.3 130.168 153.486Z" fill="white"/>
<path opacity="0.1" d="M170.986 113.559C169.834 112.86 168.899 111.853 168.285 110.651C168.199 110.518 168.163 110.359 168.185 110.202C168.261 109.911 168.638 109.86 168.911 109.735C169.419 109.502 169.633 108.916 169.966 108.461C170.251 108.087 170.634 107.799 171.073 107.63C171.511 107.462 171.987 107.418 172.449 107.504C172.934 107.603 173.383 107.845 173.876 107.914C174.933 108.07 176.084 107.427 177.032 107.914C177.465 108.137 177.758 108.557 178.015 108.971C178.662 110.01 179.472 111.114 178.884 112.326C178.548 113.023 178.009 113.6 177.252 113.803C176.496 114.006 175.62 113.836 174.849 113.754C174.217 113.684 173.552 113.549 172.916 113.607C172.165 113.684 171.698 113.99 170.986 113.559Z" fill="black"/>
<path d="M170.986 113.344C169.834 112.645 168.899 111.638 168.285 110.436C168.199 110.303 168.163 110.144 168.185 109.987C168.261 109.696 168.638 109.645 168.911 109.52C169.419 109.287 169.633 108.701 169.966 108.246C170.251 107.872 170.634 107.584 171.073 107.415C171.511 107.247 171.987 107.203 172.449 107.289C172.934 107.388 173.383 107.629 173.876 107.699C174.933 107.855 176.084 107.212 177.032 107.699C177.465 107.922 177.758 108.342 178.015 108.756C178.662 109.795 179.472 110.899 178.884 112.111C178.548 112.808 178.009 113.385 177.252 113.588C176.496 113.791 175.62 113.621 174.849 113.539C174.217 113.469 173.552 113.334 172.916 113.391C172.165 113.469 171.698 113.777 170.986 113.344Z" fill="#844F6E"/>
<path d="M83.2389 138.81C83.2389 141.014 83.3613 142.47 83.3613 142.47C83.3613 142.47 86.4966 142.646 86.4089 145.565C86.3211 148.484 98.595 149.103 98.595 149.103C98.595 149.103 98.595 149.072 98.595 149.015C98.595 149.015 98.595 148.779 98.595 148.353C99.7618 148.527 101.01 148.668 101.71 148.601C101.663 148.828 101.608 149.068 101.555 149.281C101.498 149.338 100.368 150.485 100.404 151.706C100.384 152.321 100.661 152.951 101.559 153.476C104.15 154.996 112.217 154.15 112.217 154.15C113.441 153.343 113.849 152.657 113.827 152.087C113.865 151.247 113.031 150.653 112.266 150.27C111.675 149.974 110.997 149.901 110.357 150.065C109.493 150.258 108.606 150.323 107.723 150.26C107.758 150.084 107.803 149.91 107.86 149.74C108.688 149.975 109.259 150.149 109.259 150.149C109.259 150.149 113.56 147.851 111.769 144.137C111.486 143.622 111.061 143.2 110.545 142.923C111.926 140.532 113.237 137.718 113.107 135.825C112.888 132.667 106.642 133.355 104.303 133.726L99.7924 129.283C99.7924 126.005 99.8924 122.242 99.5885 121.427C99.0499 120.012 99.2294 120.198 98.8725 119.571L98.8582 119.549C98.6542 119.217 98.0993 118.69 97.9566 118.762C97.8957 118.111 97.9046 117.455 97.9831 116.806C99.0931 116.441 100.061 115.735 100.748 114.787C101.436 113.839 101.809 112.698 101.814 111.525C101.815 110.648 101.605 109.783 101.202 109.004L101.263 108.977L100.672 106.056C100.65 105.994 100.642 105.929 100.646 105.864C100.651 105.799 100.669 105.735 100.698 105.677C100.759 105.595 100.863 105.571 100.943 105.513C101.033 105.426 101.091 105.31 101.109 105.186C101.126 105.061 101.101 104.934 101.039 104.825C100.984 104.717 100.908 104.62 100.816 104.54C100.319 103.973 99.26 104.176 98.6093 104.092C97.7281 103.979 96.804 103.815 95.9697 104.254C95.7901 104.365 95.6026 104.464 95.4088 104.549C95.1432 104.621 94.8672 104.647 94.5928 104.626C94.0962 104.626 93.6005 104.67 93.1119 104.76C92.4754 104.528 91.7268 104.733 91.1373 105.087C90.4628 105.502 89.9136 106.093 89.5485 106.798C89.1834 107.502 89.0161 108.293 89.0648 109.086C89.1162 109.581 89.2111 110.071 89.3483 110.55L90.4396 114.821C90.5093 115.178 90.6479 115.517 90.8476 115.821C90.8959 115.885 90.9506 115.944 91.0108 115.997C91.1148 116.123 91.2495 116.219 91.4018 116.278C91.5541 116.336 91.7187 116.353 91.8798 116.329C91.9213 116.319 91.9617 116.304 92.0001 116.286C91.9631 116.735 91.8762 117.179 91.7411 117.609C90.4927 117.974 88.6813 119.248 86.5068 122.935C83.7162 127.658 83.2511 134.623 83.2389 138.81Z" fill="url(#paint0_linear_98_256)"/>
<path d="M94.089 144.953H106.296V136.173H94.089V144.953Z" fill="#5F5D7E"/>
<path d="M103.266 134.26C103.266 134.26 112.356 132.347 112.615 136.173C112.874 140 107.248 147.644 107.248 147.644L102.149 146.602L103.619 140.69C103.619 140.69 97.8199 139.385 97.4731 139.299C97.1264 139.213 103.266 134.26 103.266 134.26Z" fill="#5F5D7E"/>
<path opacity="0.1" d="M103.266 134.26C103.266 134.26 112.356 132.347 112.615 136.173C112.874 140 107.248 147.644 107.248 147.644L102.149 146.602L103.619 140.69C103.619 140.69 97.8199 139.385 97.4731 139.299C97.1264 139.213 103.266 134.26 103.266 134.26Z" fill="black"/>
<path d="M108.029 148.691C108.029 148.691 107.165 150.342 107.417 151.038C107.67 151.735 101.271 150.082 101.271 150.082C101.271 150.082 101.792 148.083 101.704 147.829C101.616 147.575 108.029 148.691 108.029 148.691Z" fill="#5F5D7E"/>
<path d="M102.401 137.39L103.038 137.968L103.446 138.34C103.446 138.34 105.525 141.731 108.207 139.645C110.889 137.56 106.124 135.999 105.172 135.919C104.981 135.891 104.799 135.817 104.643 135.703C104.487 135.59 104.36 135.439 104.274 135.266C104.128 135.011 104.022 134.734 103.96 134.447L102.401 137.39Z" fill="#FDC2CC"/>
<path opacity="0.05" d="M102.401 137.39L103.038 137.968L103.446 138.34C103.446 138.34 105.525 141.731 108.207 139.645C110.889 137.56 106.124 135.999 105.172 135.919C104.981 135.891 104.799 135.817 104.643 135.703C104.487 135.59 104.36 135.439 104.274 135.266C104.128 135.011 104.022 134.734 103.96 134.447L102.401 137.39Z" fill="black"/>
<path opacity="0.1" d="M108.029 148.691C108.029 148.691 107.165 150.342 107.417 151.038C107.67 151.735 101.271 150.082 101.271 150.082C101.271 150.082 101.792 148.083 101.704 147.829C101.616 147.575 108.029 148.691 108.029 148.691Z" fill="black"/>
<path opacity="0.1" d="M102.401 137.39L103.038 137.968C103.038 136.853 103.774 135.829 104.278 135.254C104.132 134.998 104.026 134.722 103.964 134.434L102.401 137.39Z" fill="black"/>
<path d="M98.593 128.611L104.566 134.608C104.566 134.608 102.487 136.434 102.922 138.347L98.593 133.478V128.611Z" fill="#C4C8E2"/>
<path opacity="0.1" d="M98.6359 128.611V133.48L99.3294 134.26L101.388 136.575L102.964 138.349C102.532 136.436 104.609 134.611 104.609 134.611L98.6359 128.611Z" fill="black"/>
<path d="M98.5931 120.004C98.5931 120.004 98.5931 121.829 97.0346 121.308C95.4761 120.788 96.6878 141.911 96.6878 141.911C96.6878 141.911 101.19 138.521 100.323 136.087C99.4559 133.654 99.2846 131.823 99.3662 129.393C99.4478 126.964 98.5931 120.004 98.5931 120.004Z" fill="#D39999"/>
<path d="M98.5053 115.137C98.5053 115.137 97.2059 118.701 98.5053 121.397C99.8047 124.092 90.7987 119.918 90.7987 119.918C90.7987 119.918 92.7896 118.961 92.0981 114.354L98.5053 115.137Z" fill="#FDC2CC"/>
<path opacity="0.1" d="M99.2845 131.392C99.2312 132.348 99.2312 133.305 99.2845 134.26L101.343 136.575C101.041 135.928 100.701 135.301 100.323 134.696C100.003 134.199 99.9311 132.214 99.9148 129.948L99.16 129.19C99.2396 130.413 99.2845 131.392 99.2845 131.392Z" fill="black"/>
<path d="M97.9382 119.533C97.8423 119.076 98.593 119.764 98.8337 120.163L98.846 120.186C99.1927 120.8 99.0193 120.62 99.5395 122.011C100.06 123.402 99.3661 133.482 100.151 134.711C100.682 135.572 101.145 136.473 101.537 137.407L100.151 136.884C100.151 136.884 99.6313 135.319 99.2866 134.971C98.9418 134.623 99.1132 131.407 99.1132 131.407C99.1132 131.407 98.8541 125.844 98.593 124.627C98.387 123.648 98.1422 120.493 97.9382 119.533Z" fill="#C4C8E2"/>
<path opacity="0.1" d="M97.9382 119.533C97.8423 119.076 98.593 119.764 98.8337 120.163L98.846 120.186C99.1927 120.8 99.0193 120.62 99.5395 122.011C100.06 123.402 99.3661 133.482 100.151 134.711C100.682 135.572 101.145 136.473 101.537 137.407L100.151 136.884C100.151 136.884 99.6313 135.319 99.2866 134.971C98.9418 134.623 99.1132 131.407 99.1132 131.407C99.1132 131.407 98.8541 125.844 98.593 124.627C98.387 123.648 98.1422 120.493 97.9382 119.533Z" fill="black"/>
<path d="M95.9086 141.214C95.9086 141.214 109.586 140.692 111.318 144.344C113.05 147.996 108.894 150.258 108.894 150.258C108.894 150.258 103.095 148.433 101.796 148.693C100.496 148.953 95.9086 147.996 95.9086 147.996V141.214Z" fill="#5F5D7E"/>
<path d="M103.527 138.955C103.527 138.955 106.644 137.216 108.376 138.34C110.108 139.465 109.935 142.513 107.511 142.599C105.088 142.685 103.789 141.208 103.789 141.208L103.527 138.955Z" fill="#FDC2CC"/>
<path d="M93.7442 118.353C93.7442 118.353 90.974 116.44 86.9045 123.474C82.835 130.508 83.8753 142.597 83.8753 142.597C83.8753 142.597 86.9045 142.771 86.8188 145.639C86.7332 148.507 98.593 149.121 98.593 149.121C98.593 149.121 98.4196 120.608 97.2079 119.83C95.9962 119.051 93.7442 118.353 93.7442 118.353Z" fill="#C4C8E2"/>
<path opacity="0.1" d="M93.732 123.539C94.2206 123.893 94.6182 124.358 94.8921 124.896C95.1659 125.435 95.3081 126.031 95.3068 126.636C95.3211 129.24 95.3843 134.85 95.6475 135.911C95.9943 137.302 101.188 139.127 103.872 139.041C103.872 139.041 105.172 141.474 103.613 141.997C102.055 142.519 92.5326 141.997 92.5326 141.997C92.5326 141.997 88.8098 137.738 88.7242 134.008C88.6385 130.278 88.1122 126.097 88.7242 125.315C89.2239 124.653 91.3148 121.827 93.732 123.539Z" fill="black"/>
<path d="M93.9054 123.191C94.3964 123.544 94.7964 124.009 95.0721 124.549C95.3477 125.088 95.4912 125.686 95.4904 126.292C95.5047 128.896 95.5679 134.506 95.8311 135.567C96.1779 136.958 101.371 138.783 104.056 138.697C104.056 138.697 105.355 141.13 103.797 141.653C102.238 142.175 92.7162 141.653 92.7162 141.653C92.7162 141.653 88.9934 137.394 88.9078 133.664C88.8221 129.934 88.2958 125.753 88.9078 124.971C89.3973 124.313 91.4882 121.478 93.9054 123.191Z" fill="#C4C8E2"/>
<path d="M111.799 150.362C113.041 150.977 114.482 152.243 111.752 154.166C111.752 154.166 103.962 155.035 101.451 153.47C98.9398 151.905 101.451 149.383 101.451 149.383C101.451 149.383 107.197 150.918 109.955 150.168C110.573 150.005 111.229 150.074 111.799 150.362Z" fill="#4C4C56"/>
<path opacity="0.1" d="M111.799 150.539C113.041 151.133 114.482 152.337 111.752 154.178C111.752 154.178 103.962 155.01 101.451 153.513C98.9398 152.015 101.451 149.604 101.451 149.604C101.451 149.604 107.197 151.071 109.955 150.356C110.572 150.199 111.225 150.263 111.799 150.539Z" fill="black"/>
<path opacity="0.1" d="M94.1338 129.697C94.1338 129.697 94.5662 135.174 97.4241 136.391L94.1338 129.697Z" fill="black"/>
<path opacity="0.1" d="M98.4196 115.745C98.1669 116.499 97.9953 117.277 97.9076 118.068C97.3609 118.252 96.5612 117.789 95.9513 117.789C94.3643 117.789 93.9114 116.007 92.9221 114.922C92.9221 114.438 92.1062 115.567 92.0123 114.965L98.4196 115.745Z" fill="black"/>
<path d="M90.7987 112.267C90.7981 112.721 90.8536 113.174 90.9639 113.615L90.9823 113.684C91.3396 115.035 92.1954 116.199 93.376 116.94C94.5566 117.68 95.9736 117.942 97.3394 117.672C98.7052 117.402 99.9174 116.62 100.73 115.485C101.543 114.35 101.895 112.947 101.715 111.561C101.535 110.175 100.837 108.909 99.762 108.021C98.6869 107.133 97.3157 106.689 95.9266 106.779C94.5374 106.869 93.2344 107.487 92.2821 108.506C91.3298 109.526 90.7994 110.871 90.7987 112.269V112.267Z" fill="#FDC2CC"/>
<path opacity="0.1" d="M86.9066 123.568C87.4721 122.568 88.1196 121.617 88.8424 120.725C88.261 121.492 87.7302 122.297 87.2534 123.133C83.1838 130.176 84.2242 142.257 84.2242 142.257C84.2242 142.257 87.2534 142.431 87.1677 145.299C87.0902 147.874 96.6348 148.627 98.591 148.754C98.591 149.049 98.591 149.209 98.591 149.209C98.591 149.209 86.7312 148.595 86.8169 145.727C86.9025 142.859 83.8733 142.685 83.8733 142.685C83.8733 142.685 82.8432 130.61 86.9066 123.568Z" fill="black"/>
<path opacity="0.1" d="M91.4902 106.013C92.0614 105.667 92.7835 105.464 93.3995 105.692C93.8705 105.604 94.3485 105.56 94.8274 105.561C95.0896 105.58 95.3532 105.555 95.6067 105.485C95.7943 105.402 95.9757 105.305 96.1493 105.196C96.955 104.766 97.8485 104.928 98.6991 105.038C99.3906 105.128 100.559 104.876 100.959 105.671C101.02 105.778 101.043 105.903 101.027 106.025C101.01 106.147 100.954 106.26 100.867 106.347C100.79 106.404 100.69 106.427 100.631 106.509C100.602 106.566 100.585 106.629 100.58 106.693C100.576 106.757 100.584 106.821 100.604 106.882L101.175 109.749C100.913 109.878 100.626 109.951 100.334 109.965C100.042 109.978 99.7498 109.931 99.4763 109.827C99.3233 109.767 99.1735 109.698 99.0275 109.622C98.6012 109.901 98.1606 109.69 97.6445 109.801C97.3393 109.889 97.0677 110.067 96.8653 110.313C96.2652 110.955 95.8635 111.758 95.7087 112.625C95.6515 112.951 95.5761 113.353 95.2619 113.445C95.1429 113.468 95.0221 113.48 94.9009 113.482C94.3338 113.555 94.1012 114.229 93.7361 114.674C93.2914 115.215 92.4938 115.567 92.4449 116.267C92.4326 116.448 92.4714 116.646 92.3714 116.798C92.304 116.888 92.2049 116.95 92.094 116.97C91.9193 116.995 91.7413 116.969 91.5803 116.897C91.4193 116.824 91.2821 116.708 91.1842 116.56C90.9942 116.261 90.8633 115.928 90.7987 115.579L89.7441 111.38C89.6113 110.911 89.5192 110.431 89.4687 109.946C89.4214 109.168 89.5843 108.392 89.9401 107.7C90.296 107.008 90.8316 106.425 91.4902 106.013Z" fill="black"/>
<path d="M91.4106 105.935C91.9818 105.589 92.7039 105.386 93.3199 105.614C93.7909 105.526 94.2689 105.482 94.7479 105.483C95.01 105.502 95.2736 105.477 95.5271 105.407C95.7147 105.324 95.8961 105.228 96.0697 105.118C96.8754 104.688 97.7689 104.85 98.6195 104.96C99.311 105.05 100.48 104.799 100.88 105.593C100.94 105.701 100.964 105.825 100.947 105.947C100.931 106.069 100.875 106.182 100.788 106.269C100.71 106.327 100.61 106.349 100.551 106.431C100.523 106.488 100.505 106.551 100.501 106.615C100.496 106.679 100.504 106.743 100.525 106.804L101.096 109.672C100.833 109.8 100.547 109.873 100.254 109.887C99.9621 109.9 99.6703 109.853 99.3967 109.749C99.2437 109.689 99.0939 109.621 98.9479 109.545C98.5216 109.823 98.081 109.612 97.5649 109.723C97.2598 109.811 96.9882 109.989 96.7857 110.235C96.1856 110.877 95.7839 111.681 95.6291 112.548C95.572 112.873 95.4965 113.275 95.1823 113.367C95.0633 113.39 94.9425 113.402 94.8213 113.404C94.2542 113.477 94.0217 114.151 93.6565 114.596C93.2118 115.137 92.4142 115.489 92.3653 116.19C92.353 116.37 92.3918 116.568 92.2919 116.72C92.2244 116.811 92.1253 116.872 92.0144 116.892C91.8398 116.917 91.6617 116.891 91.5007 116.819C91.3398 116.747 91.2025 116.63 91.1047 116.482C90.9146 116.183 90.7837 115.85 90.7191 115.501L89.6645 111.302C89.5317 110.833 89.4396 110.353 89.3891 109.868C89.3418 109.091 89.5047 108.315 89.8605 107.622C90.2164 106.93 90.752 106.347 91.4106 105.935Z" fill="#865A61"/>
</g>
<defs>
<linearGradient id="paint0_linear_98_256" x1="113.825" y1="129.176" x2="83.2389" y2="129.176" gradientUnits="userSpaceOnUse">
<stop stop-color="#808080" stop-opacity="0.25"/>
<stop offset="0.54" stop-color="#808080" stop-opacity="0.12"/>
<stop offset="1" stop-color="#808080" stop-opacity="0.1"/>
</linearGradient>
<clipPath id="clip0_98_256">
<rect width="233" height="160" fill="white"/>
</clipPath>
</defs>
</svg>
