<svg width="103" height="27" viewBox="0 0 103 27" fill="none" xmlns="http://www.w3.org/2000/svg">
<path d="M13.328 8.576C13.328 9.552 13.104 10.448 12.656 11.264C12.208 12.064 11.52 12.712 10.592 13.208C9.664 13.704 8.512 13.952 7.136 13.952H4.592V20H0.488V3.152H7.136C8.48 3.152 9.616 3.384 10.544 3.848C11.472 4.312 12.168 4.952 12.632 5.768C13.096 6.584 13.328 7.52 13.328 8.576ZM6.824 10.688C7.608 10.688 8.192 10.504 8.576 10.136C8.96 9.768 9.152 9.248 9.152 8.576C9.152 7.904 8.96 7.384 8.576 7.016C8.192 6.648 7.608 6.464 6.824 6.464H4.592V10.688H6.824ZM19.5686 2.24V20H15.4646V2.24H19.5686ZM35.7667 6.608V20H31.6627V18.176C31.2467 18.768 30.6787 19.248 29.9587 19.616C29.2547 19.968 28.4707 20.144 27.6067 20.144C26.5827 20.144 25.6787 19.92 24.8947 19.472C24.1107 19.008 23.5027 18.344 23.0707 17.48C22.6387 16.616 22.4227 15.6 22.4227 14.432V6.608H26.5027V13.88C26.5027 14.776 26.7347 15.472 27.1987 15.968C27.6627 16.464 28.2867 16.712 29.0707 16.712C29.8707 16.712 30.5027 16.464 30.9667 15.968C31.4307 15.472 31.6627 14.776 31.6627 13.88V6.608H35.7667ZM42.8186 8.84C43.2986 8.104 43.8986 7.528 44.6186 7.112C45.3386 6.68 46.1386 6.464 47.0186 6.464V10.808H45.8906C44.8666 10.808 44.0986 11.032 43.5866 11.48C43.0746 11.912 42.8186 12.68 42.8186 13.784V20H38.7146V6.608H42.8186V8.84ZM48.1642 13.28C48.1642 11.904 48.4202 10.696 48.9322 9.656C49.4602 8.616 50.1722 7.816 51.0682 7.256C51.9642 6.696 52.9642 6.416 54.0682 6.416C55.0122 6.416 55.8362 6.608 56.5402 6.992C57.2602 7.376 57.8122 7.88 58.1962 8.504V6.608H62.3002V20H58.1962V18.104C57.7962 18.728 57.2362 19.232 56.5162 19.616C55.8122 20 54.9882 20.192 54.0442 20.192C52.9562 20.192 51.9642 19.912 51.0682 19.352C50.1722 18.776 49.4602 17.968 48.9322 16.928C48.4202 15.872 48.1642 14.656 48.1642 13.28ZM58.1962 13.304C58.1962 12.28 57.9082 11.472 57.3322 10.88C56.7722 10.288 56.0842 9.992 55.2682 9.992C54.4522 9.992 53.7562 10.288 53.1802 10.88C52.6202 11.456 52.3402 12.256 52.3402 13.28C52.3402 14.304 52.6202 15.12 53.1802 15.728C53.7562 16.32 54.4522 16.616 55.2682 16.616C56.0842 16.616 56.7722 16.32 57.3322 15.728C57.9082 15.136 58.1962 14.328 58.1962 13.304ZM69.3733 2.24V20H65.2693V2.24H69.3733ZM74.4114 5.216C73.6914 5.216 73.0994 5.008 72.6354 4.592C72.1874 4.16 71.9634 3.632 71.9634 3.008C71.9634 2.368 72.1874 1.84 72.6354 1.424C73.0994 0.991999 73.6914 0.775999 74.4114 0.775999C75.1154 0.775999 75.6914 0.991999 76.1394 1.424C76.6034 1.84 76.8354 2.368 76.8354 3.008C76.8354 3.632 76.6034 4.16 76.1394 4.592C75.6914 5.008 75.1154 5.216 74.4114 5.216ZM76.4514 6.608V20H72.3474V6.608H76.4514ZM86.8895 16.52V20H84.8015C83.3135 20 82.1535 19.64 81.3215 18.92C80.4895 18.184 80.0735 16.992 80.0735 15.344V10.016H78.4415V6.608H80.0735V3.344H84.1775V6.608H86.8655V10.016H84.1775V15.392C84.1775 15.792 84.2735 16.08 84.4655 16.256C84.6575 16.432 84.9775 16.52 85.4255 16.52H86.8895ZM102.856 6.608L94.4555 26.36H90.0395L93.1115 19.544L87.6635 6.608H92.2475L95.3435 14.984L98.4155 6.608H102.856Z" fill="url(#paint0_linear_16_359)"/>
<defs>
<linearGradient id="paint0_linear_16_359" x1="189.16" y1="12" x2="-48.6628" y2="12" gradientUnits="userSpaceOnUse">
<stop offset="0.517547" stop-color="#6592E8"/>
<stop offset="0.794366" stop-color="#E64747"/>
</linearGradient>
</defs>
</svg>
